<svg xmlns="http://www.w3.org/2000/svg" xmlns:xlink="http://www.w3.org/1999/xlink" width="100%" zoomAndPan="magnify" viewBox="34 50 400 150" height="auto" preserveAspectRatio="xMidYMid meet" version="1.0"><defs><g/><clipPath id="a690fb5a88"><path d="M 33.722656 95.222656 L 136.257812 95.222656 L 136.257812 165.785156 L 33.722656 165.785156 Z M 33.722656 95.222656 " clip-rule="nonzero"/></clipPath><clipPath id="20dad0391c"><path d="M 46.4375 95.222656 L 123.40625 95.222656 C 126.777344 95.222656 130.011719 96.5625 132.398438 98.949219 C 134.78125 101.332031 136.121094 104.566406 136.121094 107.9375 L 136.121094 153.070312 C 136.121094 156.445312 134.78125 159.679688 132.398438 162.0625 C 130.011719 164.445312 126.777344 165.785156 123.40625 165.785156 L 46.4375 165.785156 C 43.0625 165.785156 39.828125 164.445312 37.445312 162.0625 C 35.0625 159.679688 33.722656 156.445312 33.722656 153.070312 L 33.722656 107.9375 C 33.722656 104.566406 35.0625 101.332031 37.445312 98.949219 C 39.828125 96.5625 43.0625 95.222656 46.4375 95.222656 Z M 46.4375 95.222656 " clip-rule="nonzero"/></clipPath><clipPath id="6f4f6b1d14"><path d="M 54.667969 106.496094 L 115.25 106.496094 L 115.25 154.363281 L 54.667969 154.363281 Z M 54.667969 106.496094 " clip-rule="nonzero"/></clipPath></defs><g clip-path="url(#a690fb5a88)"><g clip-path="url(#20dad0391c)"><path fill="#27293b" d="M 33.722656 95.222656 L 136.257812 95.222656 L 136.257812 165.785156 L 33.722656 165.785156 Z M 33.722656 95.222656 " fill-opacity="1" fill-rule="nonzero"/></g></g><g clip-path="url(#6f4f6b1d14)"><path fill="#adbbda" d="M 62.378906 146.671875 C 61.457031 146.671875 60.539062 146.320312 59.835938 145.621094 C 58.433594 144.21875 58.433594 141.941406 59.835938 140.539062 L 71.1875 129.1875 L 59.976562 117.976562 C 58.570312 116.574219 58.570312 114.296875 59.976562 112.894531 C 61.378906 111.492188 63.652344 111.492188 65.054688 112.894531 L 78.808594 126.648438 C 79.484375 127.320312 79.863281 128.234375 79.863281 129.1875 C 79.863281 130.140625 79.484375 131.054688 78.808594 131.730469 L 64.917969 145.621094 C 64.21875 146.320312 63.296875 146.671875 62.378906 146.671875 Z M 109.21875 143.078125 C 109.21875 141.09375 107.613281 139.488281 105.628906 139.488281 L 81.59375 139.488281 C 79.609375 139.488281 78 141.09375 78 143.078125 C 78 145.0625 79.609375 146.671875 81.59375 146.671875 L 105.628906 146.671875 C 107.613281 146.671875 109.21875 145.0625 109.21875 143.078125 Z M 38.066406 199.097656 L 61.535156 174.777344 C 64.578125 171.621094 68.835938 169.8125 73.21875 169.8125 L 147.414062 169.8125 C 149.398438 169.8125 151.007812 168.207031 151.007812 166.222656 L 151.007812 96.394531 C 151.007812 94.410156 149.398438 92.800781 147.414062 92.800781 L 35.480469 92.800781 C 33.496094 92.800781 31.886719 94.410156 31.886719 96.394531 L 31.886719 196.605469 C 31.886719 198.070312 32.777344 199.386719 34.132812 199.933594 C 34.570312 200.113281 35.027344 200.195312 35.480469 200.195312 C 36.433594 200.195312 37.375 199.8125 38.066406 199.097656 Z M 143.824219 99.988281 L 143.824219 162.628906 L 73.21875 162.628906 C 70.054688 162.628906 66.972656 163.253906 64.0625 164.492188 C 61.148438 165.730469 58.558594 167.511719 56.363281 169.785156 L 39.074219 187.703125 L 39.074219 99.988281 Z M 143.824219 99.988281 " fill-opacity="1" fill-rule="nonzero"/></g><g fill="#27293b" fill-opacity="1"><g transform="translate(151.186242, 143.594045)"><g><path d="M 2.078125 -0.625 L 4.578125 -1.25 L 4.578125 -27.90625 L 2.078125 -28.53125 L 2.078125 -29.140625 L 24.359375 -29.140625 L 24.359375 -21.65625 L 23.109375 -21.65625 C 22.578125 -22.070312 22.117188 -22.597656 21.734375 -23.234375 C 20.847656 -24.734375 20.40625 -26.359375 20.40625 -28.109375 L 11.453125 -28.109375 L 11.453125 -14.984375 L 16.234375 -14.984375 C 16.429688 -16.046875 16.796875 -17.035156 17.328125 -17.953125 C 17.546875 -18.367188 17.804688 -18.769531 18.109375 -19.15625 L 19.359375 -19.15625 L 19.359375 -9.78125 L 18.109375 -9.78125 C 17.804688 -10.175781 17.546875 -10.582031 17.328125 -11 C 16.796875 -11.914062 16.429688 -12.898438 16.234375 -13.953125 L 11.453125 -13.953125 L 11.453125 -1.046875 L 21.234375 -1.046875 C 21.234375 -2.796875 21.675781 -4.414062 22.5625 -5.90625 C 22.957031 -6.550781 23.414062 -7.082031 23.9375 -7.5 L 25.1875 -7.5 L 25.1875 0 L 2.078125 0 Z M 2.078125 -0.625 "/></g></g></g><g fill="#27293b" fill-opacity="1"><g transform="translate(178.035132, 143.594045)"><g><path d="M 10.203125 0.625 C 8.566406 0.625 7.109375 0.203125 5.828125 -0.640625 C 4.554688 -1.492188 3.546875 -2.742188 2.796875 -4.390625 C 2.046875 -6.046875 1.671875 -8.050781 1.671875 -10.40625 C 1.671875 -13.957031 2.492188 -16.679688 4.140625 -18.578125 C 5.796875 -20.484375 8.023438 -21.4375 10.828125 -21.4375 C 12.160156 -21.4375 13.328125 -21.160156 14.328125 -20.609375 C 14.742188 -20.421875 15.171875 -20.144531 15.609375 -19.78125 L 15.609375 -27.90625 L 13.109375 -28.53125 L 13.109375 -29.140625 L 18.53125 -29.140625 C 21.03125 -29.140625 22.28125 -27.894531 22.28125 -25.40625 L 22.28125 -1.25 L 24.78125 -0.625 L 24.78125 0 L 21.03125 0 C 19.363281 0 18.070312 -0.515625 17.15625 -1.546875 C 16.769531 -1.960938 16.460938 -2.488281 16.234375 -3.125 C 15.878906 -2.425781 15.421875 -1.800781 14.859375 -1.25 C 13.609375 0 12.054688 0.625 10.203125 0.625 Z M 11.875 -0.828125 C 12.894531 -0.828125 13.820312 -1.382812 14.65625 -2.5 C 14.957031 -2.914062 15.273438 -3.46875 15.609375 -4.15625 L 15.609375 -18.53125 C 15.304688 -18.832031 14.988281 -19.109375 14.65625 -19.359375 C 13.90625 -19.921875 13.179688 -20.203125 12.484375 -20.203125 C 11.296875 -20.203125 10.375 -19.503906 9.71875 -18.109375 C 9.070312 -16.722656 8.75 -14.15625 8.75 -10.40625 C 8.75 -6.820312 9.046875 -4.328125 9.640625 -2.921875 C 10.234375 -1.523438 10.976562 -0.828125 11.875 -0.828125 Z M 11.875 -0.828125 "/></g></g></g><g fill="#27293b" fill-opacity="1"><g transform="translate(203.843368, 143.594045)"><g><path d="M 1.671875 -0.625 L 4.15625 -1.25 L 4.15625 -19.578125 L 1.671875 -20.203125 L 1.671875 -20.8125 L 7.078125 -20.8125 C 9.578125 -20.8125 10.828125 -19.566406 10.828125 -17.078125 L 10.828125 -1.25 L 13.328125 -0.625 L 13.328125 0 L 1.671875 0 Z M 7.078125 -23.3125 C 6.242188 -23.3125 5.550781 -23.585938 5 -24.140625 C 4.445312 -24.703125 4.171875 -25.398438 4.171875 -26.234375 C 4.171875 -27.066406 4.445312 -27.757812 5 -28.3125 C 5.550781 -28.863281 6.242188 -29.140625 7.078125 -29.140625 C 7.910156 -29.140625 8.601562 -28.863281 9.15625 -28.3125 C 9.71875 -27.757812 10 -27.066406 10 -26.234375 C 10 -25.398438 9.71875 -24.703125 9.15625 -24.140625 C 8.601562 -23.585938 7.910156 -23.3125 7.078125 -23.3125 Z M 7.078125 -23.3125 "/></g></g></g><g fill="#27293b" fill-opacity="1"><g transform="translate(217.996278, 143.594045)"><g><path d="M 12.484375 0.625 C 10.660156 0.625 9.070312 0.289062 7.71875 -0.375 C 6.375 -1.039062 5.34375 -1.957031 4.625 -3.125 C 3.90625 -4.289062 3.546875 -5.609375 3.546875 -7.078125 L 3.546875 -19.78125 L 0.625 -19.78125 L 0.625 -20.8125 L 3.546875 -20.8125 L 3.546875 -22.90625 C 3.546875 -25.40625 4.789062 -26.65625 7.28125 -26.65625 L 10.203125 -26.65625 L 10.203125 -20.8125 L 16.03125 -20.8125 L 16.03125 -19.78125 L 10.203125 -19.78125 L 10.203125 -7.078125 C 10.203125 -4.523438 10.460938 -2.773438 10.984375 -1.828125 C 11.515625 -0.890625 12.296875 -0.421875 13.328125 -0.421875 C 14.328125 -0.421875 15.203125 -0.90625 15.953125 -1.875 C 16.703125 -2.84375 17.078125 -4.160156 17.078125 -5.828125 L 18.109375 -5.828125 C 18.109375 -3.773438 17.59375 -2.1875 16.5625 -1.0625 C 15.539062 0.0625 14.179688 0.625 12.484375 0.625 Z M 12.484375 0.625 "/></g></g></g><g fill="#27293b" fill-opacity="1"><g transform="translate(236.728066, 143.594045)"><g><path d="M 9.78125 0.625 C 7.3125 0.625 5.410156 0.0976562 4.078125 -0.953125 C 2.742188 -2.015625 2.078125 -3.363281 2.078125 -5 C 2.078125 -6.082031 2.316406 -7.148438 2.796875 -8.203125 C 2.984375 -8.703125 3.234375 -9.160156 3.546875 -9.578125 C 4.679688 -9.859375 5.914062 -10.109375 7.25 -10.328125 C 10.25 -10.828125 12.898438 -11.132812 15.203125 -11.25 L 15.203125 -12.484375 C 15.203125 -15.566406 14.828125 -17.691406 14.078125 -18.859375 C 13.328125 -20.023438 12.175781 -20.609375 10.625 -20.609375 C 10.039062 -20.609375 9.539062 -20.539062 9.125 -20.40625 L 8.53125 -20.203125 L 8.53125 -13.953125 L 8 -13.828125 C 7.550781 -13.765625 7.175781 -13.734375 6.875 -13.734375 C 5.925781 -13.734375 5.164062 -14.019531 4.59375 -14.59375 C 4.03125 -15.164062 3.75 -15.921875 3.75 -16.859375 C 3.75 -18.140625 4.394531 -19.222656 5.6875 -20.109375 C 6.976562 -20.992188 8.898438 -21.4375 11.453125 -21.4375 C 13.617188 -21.4375 15.484375 -21.054688 17.046875 -20.296875 C 18.617188 -19.535156 19.8125 -18.476562 20.625 -17.125 C 21.445312 -15.78125 21.859375 -14.234375 21.859375 -12.484375 L 21.859375 -1.25 L 24.359375 -0.625 L 24.359375 0 L 20.609375 0 C 18.941406 0 17.648438 -0.515625 16.734375 -1.546875 C 16.347656 -1.960938 16.046875 -2.488281 15.828125 -3.125 C 15.429688 -2.425781 14.972656 -1.800781 14.453125 -1.25 C 13.203125 0 11.644531 0.625 9.78125 0.625 Z M 11.453125 -0.828125 C 12.472656 -0.828125 13.398438 -1.382812 14.234375 -2.5 C 14.546875 -2.914062 14.867188 -3.46875 15.203125 -4.15625 L 15.203125 -10.203125 C 13.921875 -10.203125 12.695312 -10.132812 11.53125 -10 C 10.675781 -9.882812 10.09375 -9.8125 9.78125 -9.78125 C 9.644531 -9.476562 9.507812 -9.0625 9.375 -8.53125 C 9.09375 -7.476562 8.953125 -6.4375 8.953125 -5.40625 C 8.953125 -3.851562 9.1875 -2.703125 9.65625 -1.953125 C 10.132812 -1.203125 10.734375 -0.828125 11.453125 -0.828125 Z M 11.453125 -0.828125 "/></g></g></g><g fill="#27293b" fill-opacity="1"><g transform="translate(261.911912, 143.594045)"><g/></g></g><g fill="#27293b" fill-opacity="1"><g transform="translate(273.567251, 143.594045)"><g><path d="M 5.828125 -23.9375 L 5.828125 -1.875 L 9.15625 -0.625 L 9.15625 0 L 1.25 0 L 1.25 -0.625 L 4.578125 -1.875 L 4.578125 -27.90625 L 2.078125 -28.53125 L 2.078125 -29.140625 L 7.28125 -29.140625 C 8.726562 -29.140625 9.875 -28.84375 10.71875 -28.25 C 11.570312 -27.65625 12.300781 -26.773438 12.90625 -25.609375 L 21.984375 -8.25 L 28.9375 -25.609375 C 29.40625 -26.828125 30.039062 -27.71875 30.84375 -28.28125 C 31.65625 -28.851562 32.894531 -29.140625 34.5625 -29.140625 L 38.9375 -29.140625 L 38.9375 -28.53125 L 36.4375 -27.90625 L 36.4375 -1.25 L 38.9375 -0.625 L 38.9375 0 L 27.0625 0 L 27.0625 -0.625 L 29.5625 -1.25 L 29.5625 -23.9375 L 19.78125 0.421875 L 18.53125 0.421875 Z M 5.828125 -23.9375 "/></g></g></g><g fill="#27293b" fill-opacity="1"><g transform="translate(314.569051, 143.594045)"><g><path d="M 12.703125 0.625 C 9.253906 0.625 6.550781 -0.351562 4.59375 -2.3125 C 2.644531 -4.269531 1.671875 -6.96875 1.671875 -10.40625 C 1.671875 -13.851562 2.644531 -16.550781 4.59375 -18.5 C 6.550781 -20.457031 9.253906 -21.4375 12.703125 -21.4375 C 16.140625 -21.4375 18.835938 -20.457031 20.796875 -18.5 C 22.753906 -16.550781 23.734375 -13.851562 23.734375 -10.40625 C 23.734375 -6.96875 22.753906 -4.269531 20.796875 -2.3125 C 18.835938 -0.351562 16.140625 0.625 12.703125 0.625 Z M 12.703125 -0.203125 C 13.804688 -0.203125 14.738281 -0.976562 15.5 -2.53125 C 16.269531 -4.09375 16.65625 -6.71875 16.65625 -10.40625 C 16.65625 -14.101562 16.269531 -16.726562 15.5 -18.28125 C 14.738281 -19.832031 13.804688 -20.609375 12.703125 -20.609375 C 11.585938 -20.609375 10.648438 -19.832031 9.890625 -18.28125 C 9.128906 -16.726562 8.75 -14.101562 8.75 -10.40625 C 8.75 -6.71875 9.128906 -4.09375 9.890625 -2.53125 C 10.648438 -0.976562 11.585938 -0.203125 12.703125 -0.203125 Z M 12.703125 -0.203125 "/></g></g></g><g fill="#27293b" fill-opacity="1"><g transform="translate(339.961024, 143.594045)"><g><path d="M 12.484375 0.625 C 10.660156 0.625 9.070312 0.289062 7.71875 -0.375 C 6.375 -1.039062 5.34375 -1.957031 4.625 -3.125 C 3.90625 -4.289062 3.546875 -5.609375 3.546875 -7.078125 L 3.546875 -19.78125 L 0.625 -19.78125 L 0.625 -20.8125 L 3.546875 -20.8125 L 3.546875 -22.90625 C 3.546875 -25.40625 4.789062 -26.65625 7.28125 -26.65625 L 10.203125 -26.65625 L 10.203125 -20.8125 L 16.03125 -20.8125 L 16.03125 -19.78125 L 10.203125 -19.78125 L 10.203125 -7.078125 C 10.203125 -4.523438 10.460938 -2.773438 10.984375 -1.828125 C 11.515625 -0.890625 12.296875 -0.421875 13.328125 -0.421875 C 14.328125 -0.421875 15.203125 -0.90625 15.953125 -1.875 C 16.703125 -2.84375 17.078125 -4.160156 17.078125 -5.828125 L 18.109375 -5.828125 C 18.109375 -3.773438 17.59375 -2.1875 16.5625 -1.0625 C 15.539062 0.0625 14.179688 0.625 12.484375 0.625 Z M 12.484375 0.625 "/></g></g></g><g fill="#27293b" fill-opacity="1"><g transform="translate(358.6928, 143.594045)"><g><path d="M 11.65625 0.625 C 10.101562 0.625 8.707031 0.300781 7.46875 -0.34375 C 6.238281 -1 5.273438 -1.851562 4.578125 -2.90625 C 3.890625 -3.96875 3.546875 -5.082031 3.546875 -6.25 L 3.546875 -19.578125 L 1.046875 -20.203125 L 1.046875 -20.8125 L 6.453125 -20.8125 C 8.953125 -20.8125 10.203125 -19.566406 10.203125 -17.078125 L 10.203125 -6.25 C 10.203125 -4.5 10.515625 -3.15625 11.140625 -2.21875 C 11.765625 -1.289062 12.492188 -0.828125 13.328125 -0.828125 C 14.347656 -0.828125 15.273438 -1.382812 16.109375 -2.5 C 16.421875 -2.914062 16.742188 -3.46875 17.078125 -4.15625 L 17.078125 -19.578125 L 14.578125 -20.203125 L 14.578125 -20.8125 L 26.234375 -20.8125 L 26.234375 -20.203125 L 23.734375 -19.578125 L 23.734375 0.203125 L 23.3125 0.203125 C 21.289062 0.203125 19.753906 -0.347656 18.703125 -1.453125 C 18.222656 -1.953125 17.890625 -2.507812 17.703125 -3.125 C 17.304688 -2.425781 16.847656 -1.800781 16.328125 -1.25 C 15.078125 0 13.519531 0.625 11.65625 0.625 Z M 11.65625 0.625 "/></g></g></g><g fill="#27293b" fill-opacity="1"><g transform="translate(385.749817, 143.594045)"><g><path d="M 1.671875 -1.046875 L 13.53125 -19.78125 L 6.03125 -19.78125 C 6.03125 -18.25 5.570312 -16.707031 4.65625 -15.15625 C 4.300781 -14.570312 3.859375 -14.03125 3.328125 -13.53125 L 2.078125 -13.53125 L 2.078125 -20.8125 L 21.03125 -20.8125 L 21.03125 -19.78125 L 9.15625 -1.046875 L 17.078125 -1.046875 C 17.078125 -2.628906 17.519531 -4.164062 18.40625 -5.65625 C 18.789062 -6.300781 19.25 -6.84375 19.78125 -7.28125 L 21.03125 -7.28125 L 21.03125 0 L 1.671875 0 Z M 1.671875 -1.046875 "/></g></g></g><g fill="#27293b" fill-opacity="1"><g transform="translate(408.436104, 143.594045)"><g><path d="M 12.90625 0.625 C 9.351562 0.625 6.59375 -0.351562 4.625 -2.3125 C 2.65625 -4.269531 1.671875 -6.96875 1.671875 -10.40625 C 1.671875 -12.65625 2.097656 -14.613281 2.953125 -16.28125 C 3.816406 -17.945312 5.019531 -19.222656 6.5625 -20.109375 C 8.101562 -20.992188 9.875 -21.4375 11.875 -21.4375 C 13.863281 -21.4375 15.613281 -21.0625 17.125 -20.3125 C 18.644531 -19.570312 19.8125 -18.566406 20.625 -17.296875 C 21.445312 -16.035156 21.859375 -14.640625 21.859375 -13.109375 C 21.859375 -12.421875 21.789062 -11.828125 21.65625 -11.328125 L 21.4375 -10.625 C 20.25 -10.375 18.960938 -10.164062 17.578125 -10 C 14.660156 -9.582031 11.71875 -9.375 8.75 -9.375 C 8.75 -6.144531 9.191406 -3.84375 10.078125 -2.46875 C 10.960938 -1.101562 12.179688 -0.421875 13.734375 -0.421875 C 14.816406 -0.421875 15.820312 -0.675781 16.75 -1.1875 C 17.6875 -1.695312 18.425781 -2.375 18.96875 -3.21875 C 19.507812 -4.070312 19.78125 -4.941406 19.78125 -5.828125 L 20.8125 -5.828125 C 20.8125 -4.710938 20.476562 -3.65625 19.8125 -2.65625 C 19.15625 -1.664062 18.226562 -0.867188 17.03125 -0.265625 C 15.832031 0.328125 14.457031 0.625 12.90625 0.625 Z M 8.75 -10.40625 C 10.519531 -10.40625 11.960938 -10.476562 13.078125 -10.625 C 13.546875 -10.644531 14.046875 -10.710938 14.578125 -10.828125 C 14.597656 -10.960938 14.664062 -11.269531 14.78125 -11.75 C 14.914062 -12.4375 14.984375 -13.171875 14.984375 -13.953125 C 14.984375 -16.253906 14.675781 -17.9375 14.0625 -19 C 13.457031 -20.070312 12.726562 -20.609375 11.875 -20.609375 C 9.789062 -20.609375 8.75 -17.207031 8.75 -10.40625 Z M 8.75 -10.40625 "/></g></g></g></svg>